<?xml version="1.0" encoding="UTF-8"?>
<svg id="_레이어_1" data-name="레이어 1" xmlns="http://www.w3.org/2000/svg" viewBox="0 0 3114.4 1938.16">
  <defs>
    <style>
      .cls-1 {
        fill: #fff;
      }

      .cls-2 {
        fill: #f2eedf;
        fill-rule: evenodd;
      }

      .cls-3 {
        fill: #2d1a01;
      }

      .cls-4 {
        fill: #ef7faf;
      }

      .cls-5 {
        fill: #ffea52;
      }
    </style>
  </defs>
  <g>
    <path class="cls-2" d="m3111.51,1701.93c0,128.87-105.83,233.34-236.37,233.34s-236.37-104.47-236.37-233.34"/>
    <path class="cls-3" d="m2875.13,1938.16c-16.23,0-32.45-1.61-48.21-4.8-15.36-3.1-30.47-7.73-44.91-13.76-14.18-5.92-27.85-13.25-40.64-21.78-12.67-8.45-24.58-18.15-35.41-28.84-10.83-10.69-20.66-22.45-29.22-34.96-8.64-12.63-16.07-26.13-22.07-40.13-6.11-14.26-10.8-29.18-13.95-44.35-3.23-15.57-4.86-31.58-4.86-47.61h5.79c0,127.07,104.74,230.44,233.48,230.44s233.48-103.37,233.48-230.44h5.79c0,16.03-1.64,32.05-4.86,47.61-3.14,15.17-7.84,30.09-13.95,44.35-6,14-13.42,27.5-22.07,40.13-8.56,12.51-18.39,24.27-29.22,34.96-10.83,10.69-22.74,20.39-35.41,28.84-12.79,8.53-26.47,15.86-40.64,21.78-14.44,6.03-29.55,10.66-44.91,13.76-15.76,3.18-31.98,4.8-48.21,4.8Z"/>
  </g>
  <g>
    <ellipse class="cls-1" cx="2875.13" cy="1702.03" rx="236.37" ry="58.51"/>
    <path class="cls-3" d="m2875.13,1763.44c-32.01,0-63.07-1.55-92.31-4.61-28.28-2.96-53.69-7.2-75.53-12.61-21.98-5.44-39.28-11.8-51.42-18.91-13.28-7.77-20.01-16.27-20.01-25.28s6.73-17.51,20.01-25.28c12.14-7.11,29.45-13.47,51.42-18.91,21.84-5.41,47.25-9.65,75.53-12.61,29.24-3.06,60.3-4.61,92.31-4.61s63.07,1.55,92.31,4.61c28.28,2.96,53.69,7.2,75.53,12.61,21.98,5.44,39.28,11.8,51.42,18.91,13.28,7.77,20.01,16.27,20.01,25.28s-6.73,17.51-20.01,25.28c-12.14,7.11-29.45,13.47-51.42,18.91-21.84,5.41-47.25,9.65-75.53,12.61-29.24,3.06-60.3,4.61-92.31,4.61Zm0-117.02c-62.91,0-122.02,6.06-166.45,17.05-21.44,5.31-38.22,11.46-49.89,18.29-5.74,3.36-10.11,6.83-13,10.33-2.75,3.32-4.14,6.67-4.14,9.95s1.39,6.62,4.14,9.95c2.89,3.49,7.26,6.97,13,10.33,11.67,6.83,28.45,12.98,49.89,18.29,44.42,11,103.54,17.05,166.45,17.05s122.02-6.06,166.45-17.05c21.44-5.31,38.22-11.46,49.89-18.29,5.74-3.36,10.11-6.83,13-10.33,2.75-3.32,4.14-6.67,4.14-9.95s-1.39-6.62-4.14-9.95c-2.89-3.49-7.26-6.97-13-10.33-11.67-6.83-28.45-12.98-49.89-18.29-44.42-11-103.54-17.05-166.45-17.05Z"/>
  </g>
  <g>
    <path class="cls-5" d="m3021.26,1696.7c-.09-80.63-65.48-145.97-146.13-145.97s-146.04,65.34-146.13,145.97c-.02.18-.03.37-.03.55,0,14.97,65.44,27.1,146.16,27.1s146.16-12.13,146.16-27.1c0-.18-.01-.37-.03-.55Z"/>
    <path class="cls-3" d="m2875.13,1727.25c-39.21,0-76.1-2.84-103.88-7.99-13.64-2.53-24.39-5.49-31.96-8.81-4.02-1.76-7.15-3.64-9.3-5.59-2.6-2.36-3.92-4.92-3.92-7.61,0-.22.01-.45.03-.69.04-20.05,4-39.5,11.76-57.81,7.51-17.73,18.26-33.65,31.94-47.32,13.68-13.67,29.61-24.4,47.35-31.9,18.36-7.76,37.87-11.7,57.97-11.7s39.61,3.94,57.97,11.7c17.74,7.5,33.67,18.23,47.35,31.9,13.68,13.67,24.43,29.59,31.94,47.32,7.76,18.31,11.72,37.76,11.76,57.81.02.24.03.47.03.69,0,2.69-1.32,5.25-3.92,7.61-2.15,1.95-5.28,3.83-9.3,5.59-7.56,3.32-18.32,6.28-31.96,8.81-27.77,5.15-64.67,7.99-103.88,7.99Zm0-173.62c-78.89,0-143.14,64.18-143.23,143.07v.15s-.02.15-.02.15c-.01.1-.02.18-.02.24,0,2.27,3.65,5.22,9.75,7.9,7.16,3.14,17.48,5.97,30.69,8.42,27.44,5.09,63.95,7.89,102.82,7.89s75.39-2.8,102.82-7.89c13.2-2.45,23.53-5.28,30.69-8.42,6.11-2.68,9.75-5.63,9.75-7.9,0-.06,0-.14-.02-.24l-.02-.15v-.15c-.09-78.89-64.34-143.07-143.23-143.07Z"/>
  </g>
  <rect class="cls-4" x="2851.66" y="1669.44" width="47.98" height="25.11"/>
  <circle class="cls-3" cx="2814.69" cy="1649.34" r="14.93"/>
  <circle class="cls-3" cx="2936.2" cy="1649.34" r="14.93"/>
  <ellipse class="cls-4" cx="2774.21" cy="1681.18" rx="22.78" ry="8.5"/>
  <ellipse class="cls-4" cx="2978.9" cy="1681.18" rx="22.78" ry="8.5"/>
  <g>
    <ellipse class="cls-5" cx="2799.77" cy="1718.67" rx="17.51" ry="29.86" transform="translate(787.51 4315.46) rotate(-83.77)"/>
    <path class="cls-3" d="m2803.38,1739.28c-1.92,0-3.86-.11-5.83-.32-8.43-.92-16.19-3.74-21.85-7.94-6.11-4.54-9.13-10.18-8.5-15.9.62-5.71,4.79-10.58,11.73-13.69,6.43-2.88,14.61-3.97,23.05-3.04,8.43.92,16.19,3.74,21.85,7.94,6.11,4.54,9.13,10.18,8.5,15.9-.62,5.71-4.79,10.58-11.73,13.69-4.93,2.21-10.9,3.36-17.22,3.36Zm-7.15-35.42c-12.34,0-22.51,4.95-23.27,11.88-.86,7.88,10.69,15.87,25.22,17.45,7.43.81,14.55-.1,20.05-2.57,4.99-2.24,7.95-5.45,8.34-9.03.86-7.88-10.69-15.87-25.22-17.45-1.73-.19-3.45-.28-5.12-.28Z"/>
  </g>
  <g>
    <ellipse class="cls-5" cx="2952.42" cy="1718.67" rx="29.86" ry="17.51" transform="translate(-169.03 330.44) rotate(-6.23)"/>
    <path class="cls-3" d="m2948.81,1739.28c-6.32,0-12.29-1.15-17.22-3.36-6.94-3.11-11.11-7.98-11.73-13.69-.62-5.71,2.4-11.36,8.5-15.9,5.66-4.2,13.42-7.02,21.85-7.94,8.43-.92,16.62.16,23.05,3.04,6.94,3.11,11.11,7.98,11.73,13.69.62,5.71-2.4,11.36-8.5,15.9-5.66,4.2-13.42,7.02-21.85,7.94-1.96.21-3.91.32-5.83.32Zm7.15-35.42c-1.67,0-3.39.09-5.12.28-7.43.81-14.18,3.24-19.02,6.84-4.39,3.26-6.59,7.03-6.2,10.62h0c.39,3.59,3.35,6.79,8.34,9.03,5.5,2.47,12.62,3.38,20.05,2.57,14.53-1.59,26.08-9.58,25.22-17.46-.76-6.94-10.93-11.88-23.27-11.88Z"/>
  </g>
  <path class="cls-3" d="m2899.64,1693.15h-47.98c.87.87,1.74,1.74,2.61,2.61v-28.34c-.87.87-1.74,1.74-2.61,2.61h47.98c-.87-.87-1.74-1.74-2.61-2.61v28.34c0,1.36,1.2,2.67,2.61,2.61s2.61-1.15,2.61-2.61v-28.34c0-1.41-1.19-2.61-2.61-2.61h-47.98c-1.41,0-2.61,1.19-2.61,2.61v28.34c0,1.41,1.19,2.61,2.61,2.61h47.98c1.36,0,2.67-1.2,2.61-2.61-.06-1.41-1.15-2.61-2.61-2.61Z"/>
  <g>
    <path class="cls-5" d="m2899.27,1513.93c-10.85-9.3-23.37,10.82-23.71,11.36-.34-.55-12.86-20.66-23.71-11.36-13.16,11.28,23.04,35.6,23.71,36.05.67-.45,36.87-24.77,23.71-36.05Z"/>
    <path class="cls-3" d="m2875.56,1553.41l-1.58-1.06c-2.77-1.85-27.04-18.46-27.83-31.73-.21-3.45,1.13-6.51,3.85-8.85,2.93-2.51,6.36-3.55,9.93-2.99,6.67,1.04,12.49,7.39,15.64,11.53,3.15-4.14,8.97-10.49,15.64-11.53,3.56-.56,7,.48,9.93,2.99,2.73,2.34,4.06,5.4,3.85,8.85-.79,13.27-25.07,29.88-27.83,31.73l-1.58,1.06Zm-17.54-39.09c-1.53,0-2.93.57-4.32,1.77-1.38,1.18-1.97,2.51-1.87,4.19.49,8.27,16.04,20.85,23.73,26.25,7.69-5.41,23.24-17.98,23.73-26.25.1-1.67-.5-3-1.87-4.19h0c-1.7-1.45-3.39-1.99-5.34-1.69-5.86.91-12.16,9.25-14.09,12.38l-2.42,3.93-2.42-3.93c-1.93-3.13-8.23-11.47-14.09-12.38-.35-.05-.69-.08-1.03-.08Z"/>
  </g>
</svg>