<svg width="24" height="21" viewBox="0 0 24 21" fill="none" xmlns="http://www.w3.org/2000/svg">
<g id="Union">
<mask id="path-1-inside-1_1_73" fill="white">
<path fill-rule="evenodd" clip-rule="evenodd" d="M21.7487 1.75736C19.4055 -0.585786 15.6066 -0.585786 13.2634 1.75736L11.6421 3.37865L10.2426 1.97917C7.8995 -0.363975 4.1005 -0.363975 1.75736 1.97917C-0.585786 4.32232 -0.585786 8.12131 1.75736 10.4645L11.6569 20.3639L20.1421 11.8787L20.1274 11.8639L21.7487 10.2426C24.0918 7.8995 24.0918 4.1005 21.7487 1.75736Z"/>
</mask>
<path fill-rule="evenodd" clip-rule="evenodd" d="M21.7487 1.75736C19.4055 -0.585786 15.6066 -0.585786 13.2634 1.75736L11.6421 3.37865L10.2426 1.97917C7.8995 -0.363975 4.1005 -0.363975 1.75736 1.97917C-0.585786 4.32232 -0.585786 8.12131 1.75736 10.4645L11.6569 20.3639L20.1421 11.8787L20.1274 11.8639L21.7487 10.2426C24.0918 7.8995 24.0918 4.1005 21.7487 1.75736Z" fill="#FFEA52"/>
<path d="M13.2634 1.75736L11.8492 0.343146L11.8492 0.343146L13.2634 1.75736ZM21.7487 1.75736L23.1629 0.343146L23.1629 0.343145L21.7487 1.75736ZM11.6421 3.37865L10.2279 4.79286L11.6421 6.20708L13.0563 4.79286L11.6421 3.37865ZM10.2426 1.97917L8.82843 3.39338L8.82843 3.39338L10.2426 1.97917ZM1.75736 1.97917L3.17157 3.39338L1.75736 1.97917ZM1.75736 10.4645L3.17157 9.05024L3.17157 9.05024L1.75736 10.4645ZM11.6569 20.3639L10.2426 21.7782L11.6569 23.1924L13.0711 21.7782L11.6569 20.3639ZM20.1421 11.8787L21.5563 13.2929L22.9706 11.8787L21.5563 10.4645L20.1421 11.8787ZM20.1274 11.8639L18.7132 10.4497L17.299 11.8639L18.7132 13.2781L20.1274 11.8639ZM21.7487 10.2426L20.3345 8.82843L20.3345 8.82843L21.7487 10.2426ZM14.6776 3.17157C16.2397 1.60948 18.7724 1.60948 20.3345 3.17157L23.1629 0.343145C20.0387 -2.78105 14.9734 -2.78105 11.8492 0.343146L14.6776 3.17157ZM13.0563 4.79286L14.6776 3.17157L11.8492 0.343146L10.2279 1.96444L13.0563 4.79286ZM8.82843 3.39338L10.2279 4.79286L13.0563 1.96444L11.6569 0.564957L8.82843 3.39338ZM3.17157 3.39338C4.73367 1.83129 7.26633 1.83129 8.82843 3.39338L11.6569 0.564957C8.53266 -2.55924 3.46734 -2.55924 0.343146 0.564957L3.17157 3.39338ZM3.17157 9.05024C1.60948 7.48814 1.60948 4.95548 3.17157 3.39338L0.343146 0.564957C-2.78105 3.68915 -2.78105 8.75447 0.343146 11.8787L3.17157 9.05024ZM13.0711 18.9497L3.17157 9.05024L0.343146 11.8787L10.2426 21.7782L13.0711 18.9497ZM18.7279 10.4645L10.2426 18.9497L13.0711 21.7782L21.5563 13.2929L18.7279 10.4645ZM18.7132 13.2781L18.7279 13.2929L21.5563 10.4645L21.5416 10.4497L18.7132 13.2781ZM20.3345 8.82843L18.7132 10.4497L21.5416 13.2781L23.1629 11.6569L20.3345 8.82843ZM20.3345 3.17157C21.8966 4.73367 21.8966 7.26633 20.3345 8.82843L23.1629 11.6569C26.2871 8.53266 26.2871 3.46734 23.1629 0.343146L20.3345 3.17157Z" fill="#2D1A01" mask="url(#path-1-inside-1_1_73)"/>
</g>
</svg>
